<svg width="24" height="24" viewBox="0 0 24 24" fill="none" xmlns="http://www.w3.org/2000/svg">
<path d="M22 3.42858V5.57142C22 7.45983 17.5208 9 12 9C6.47915 9 2 7.45983 2 5.57142V3.42858C2 1.54017 6.47915 0 12 0C17.5208 0 22 1.54017 22 3.42858ZM22 8.25V13.0714C22 14.9598 17.5208 16.5 12 16.5C6.47915 16.5 2 14.9598 2 13.0714V8.25C4.14844 9.80358 8.08071 10.5268 12 10.5268C15.9193 10.5268 19.8515 9.80358 22 8.25ZM22 15.75V20.5714C22 22.4598 17.5208 24 12 24C6.47915 24 2 22.4598 2 20.5714V15.75C4.14844 17.3036 8.08071 18.0268 12 18.0268C15.9193 18.0268 19.8515 17.3036 22 15.75Z" fill="#1D70B8"/>
</svg>
