<svg width="24" height="24" viewBox="0 0 24 24" fill="none" xmlns="http://www.w3.org/2000/svg">
<g clip-path="url(#clip0_8_7)">
<path d="M19.5 24H4.5C3.83696 24 3.20107 23.7472 2.73223 23.2971C2.26339 22.847 2 22.2366 2 21.6001V2.40095C2 1.76446 2.26339 1.15404 2.73223 0.703969C3.20107 0.253901 3.83696 0.00105586 4.5 0.00105586H13.25C13.2612 -0.000351954 13.2725 -0.000351954 13.2838 0.00105586H13.2912C13.3031 0.00459772 13.3152 0.00700941 13.3275 0.0082556C13.4375 0.0154553 13.5463 0.0358542 13.6513 0.0694528H13.7037C13.7268 0.0849548 13.7486 0.102209 13.7687 0.12105C13.9049 0.179179 14.029 0.260486 14.135 0.36104L21.635 7.56072C21.7398 7.66246 21.8245 7.78158 21.885 7.91231C21.8959 7.93825 21.9055 7.96468 21.9137 7.9915L21.9262 8.0251C21.9612 8.1247 21.9812 8.22909 21.9875 8.33469C21.9886 8.34664 21.9915 8.35837 21.9962 8.36949V8.37669C21.9983 8.38456 21.9995 8.39259 22 8.40069V21.6001C22 22.2366 21.7366 22.847 21.2678 23.2971C20.7989 23.7472 20.163 24 19.5 24ZM13.25 2.40095V8.40069H19.5L13.25 2.40095Z" fill="#1D70B8"/>
</g>
<defs>
<clipPath id="clip0_8_7">
<rect width="24" height="24" fill="white"/>
</clipPath>
</defs>
</svg>
