<svg width="24" height="24" viewBox="0 0 24 24" fill="none" xmlns="http://www.w3.org/2000/svg">
<path d="M21.733 6.51473L15.6193 1.2308C15.4489 1.08348 15.2188 1 14.9773 1H2.90909C2.40625 1 2 1.35112 2 1.78571V22.2143C2 22.6489 2.40625 23 2.90909 23H21.0909C21.5938 23 22 22.6489 22 22.2143V7.0721C22 6.86339 21.9034 6.66205 21.733 6.51473ZM19.9034 7.43304H14.5568V2.81205L19.9034 7.43304ZM19.9545 21.2321H4.04545V2.76786H12.625V8.07143C12.625 8.34493 12.7507 8.60724 12.9745 8.80063C13.1982 8.99403 13.5017 9.10268 13.8182 9.10268H19.9545V21.2321Z" fill="#1D70B8"/>
</svg>
