<svg width="24" height="24" viewBox="0 0 24 24" fill="none" xmlns="http://www.w3.org/2000/svg">
<path d="M22.2857 4.38462H10.6457L8.66571 1.69385C8.50613 1.47826 8.29712 1.303 8.05579 1.18241C7.81445 1.06182 7.54763 0.999313 7.27714 1.00001H1.71429C1.25963 1.00001 0.823594 1.1783 0.502103 1.49567C0.180612 1.81304 0 2.24349 0 2.69231V21.3077C0 21.7565 0.180612 22.187 0.502103 22.5043C0.823594 22.8217 1.25963 23 1.71429 23H22.2857C22.7404 23 23.1764 22.8217 23.4979 22.5043C23.8194 22.187 24 21.7565 24 21.3077V6.07693C24 5.6281 23.8194 5.19765 23.4979 4.88029C23.1764 4.56292 22.7404 4.38462 22.2857 4.38462ZM1.71429 6.07693V2.69231H7.27714L9.60857 6.07693H1.71429Z" fill="#1D70B8"/>
</svg>
